<?xml version="1.0" encoding="UTF-8"?>
<svg id="Layer_2" data-name="Layer 2" xmlns="http://www.w3.org/2000/svg" viewBox="0 0 792.16 793.32">
  <defs>
    <style>
      .cls-1 {
        fill: #fff;
      }

      .cls-2 {
        stroke-width: 66px;
      }

      .cls-2, .cls-3 {
        fill: none;
        stroke: #fff;
        stroke-linejoin: round;
      }

      .cls-3 {
        stroke-width: 24px;
      }
    </style>
  </defs>
  <g id="Layer_1-2" data-name="Layer 1">
    <g>
      <line class="cls-2" x1="734.77" y1="736.87" x2="683.02" y2="685.12"/>
      <polygon class="cls-1" points="660.82 793.32 791.22 662.92 791.21 793.31 660.82 793.32"/>
    </g>
    <g>
      <line class="cls-3" x1="643.32" y1="645.42" x2="571.31" y2="573.41"/>
      <polygon class="cls-1" points="657.69 619.17 672.55 674.65 617.07 659.79 657.69 619.17"/>
    </g>
    <g>
      <line class="cls-2" x1="735.7" y1="56.84" x2="683.96" y2="108.59"/>
      <polygon class="cls-1" points="792.16 130.78 661.76 .38 792.14 .4 792.16 130.78"/>
    </g>
    <g>
      <line class="cls-3" x1="644.25" y1="148.29" x2="572.25" y2="220.3"/>
      <polygon class="cls-1" points="618 133.92 673.48 119.06 658.62 174.54 618 133.92"/>
    </g>
    <g>
      <line class="cls-2" x1="57.32" y1="56.46" x2="109.07" y2="108.2"/>
      <polygon class="cls-1" points="131.26 0 .86 130.4 .88 .02 131.26 0"/>
    </g>
    <g>
      <line class="cls-3" x1="148.77" y1="147.91" x2="220.78" y2="219.91"/>
      <polygon class="cls-1" points="134.4 174.16 119.54 118.68 175.02 133.54 134.4 174.16"/>
    </g>
    <g>
      <line class="cls-2" x1="56.46" y1="735.52" x2="108.2" y2="683.78"/>
      <polygon class="cls-1" points="0 661.58 130.4 791.98 .02 791.97 0 661.58"/>
    </g>
    <g>
      <line class="cls-3" x1="746.06" y1="394.4" x2="668.52" y2="394.4"/>
      <polygon class="cls-1" points="737.65 365.68 787.39 394.4 737.65 423.12 737.65 365.68"/>
    </g>
    <g>
      <line class="cls-3" x1="43.96" y1="394.4" x2="121.5" y2="394.4"/>
      <polygon class="cls-1" points="52.36 423.12 2.62 394.4 52.36 365.68 52.36 423.12"/>
    </g>
    <g>
      <line class="cls-3" x1="396.52" y1="45.72" x2="396.52" y2="123.27"/>
      <polygon class="cls-1" points="367.8 54.13 396.52 4.39 425.24 54.13 367.8 54.13"/>
    </g>
    <g>
      <line class="cls-3" x1="397.51" y1="745.83" x2="397.51" y2="668.29"/>
      <polygon class="cls-1" points="426.23 737.42 397.51 787.16 368.79 737.42 426.23 737.42"/>
    </g>
    <g>
      <line class="cls-3" x1="147.91" y1="644.08" x2="219.91" y2="572.07"/>
      <polygon class="cls-1" points="174.16 658.44 118.68 673.31 133.54 617.83 174.16 658.44"/>
    </g>
    <ellipse class="cls-1" cx="483.92" cy="67.62" rx="40.8" ry="14.56" transform="translate(261.16 502.51) rotate(-70.83)"/>
    <ellipse class="cls-1" cx="566.35" cy="101.6" rx="40.8" ry="14.56" transform="translate(148.84 497.54) rotate(-53.65)"/>
    <ellipse class="cls-1" cx="689.19" cy="223.54" rx="40.8" ry="14.56" transform="translate(-28.53 322.65) rotate(-25.83)"/>
    <ellipse class="cls-1" cx="723.45" cy="305.86" rx="40.8" ry="14.56" transform="translate(-37.78 112.31) rotate(-8.65)"/>
    <ellipse class="cls-1" cx="721.41" cy="478.09" rx="14.56" ry="40.8" transform="translate(32.96 1002.54) rotate(-70.83)"/>
    <ellipse class="cls-1" cx="687.42" cy="560.52" rx="14.56" ry="40.8" transform="translate(-171.47 781.97) rotate(-53.65)"/>
    <ellipse class="cls-1" cx="565.49" cy="683.36" rx="14.56" ry="40.8" transform="translate(-241.26 314.7) rotate(-25.83)"/>
    <ellipse class="cls-1" cx="483.17" cy="717.62" rx="14.56" ry="40.8" transform="translate(-102.45 80.85) rotate(-8.65)"/>
    <ellipse class="cls-1" cx="309.93" cy="720.07" rx="40.8" ry="14.56" transform="translate(-471.98 776.4) rotate(-70.83)"/>
    <ellipse class="cls-1" cx="227.5" cy="686.08" rx="40.8" ry="14.56" transform="translate(-459.93 462.68) rotate(-53.65)"/>
    <ellipse class="cls-1" cx="104.66" cy="564.15" rx="40.8" ry="14.56" transform="translate(-235.37 101.98) rotate(-25.83)"/>
    <ellipse class="cls-1" cx="70.4" cy="481.83" rx="40.8" ry="14.56" transform="translate(-71.68 16.07) rotate(-8.65)"/>
    <ellipse class="cls-1" cx="72.44" cy="309.6" rx="14.56" ry="40.8" transform="translate(-243.78 276.37) rotate(-70.83)"/>
    <ellipse class="cls-1" cx="106.42" cy="227.16" rx="14.56" ry="40.8" transform="translate(-139.62 178.24) rotate(-53.65)"/>
    <ellipse class="cls-1" cx="228.35" cy="104.33" rx="14.56" ry="40.8" transform="translate(-22.64 109.93) rotate(-25.83)"/>
    <ellipse class="cls-1" cx="310.67" cy="70.07" rx="14.56" ry="40.8" transform="translate(-7.01 47.53) rotate(-8.65)"/>
  </g>
</svg>