<?xml version="1.0" encoding="UTF-8"?>
<!-- Generator: Blender, SVG Export for Grease Pencil - v1.0 -->
<!DOCTYPE svg PUBLIC "-//W3C//DTD SVG 1.1//EN" "http://www.w3.org/Graphics/SVG/1.1/DTD/svg11.dtd">
<svg version="1.0" x="0px" y="0px" xmlns="http://www.w3.org/2000/svg" width="1920px" height="1080px" viewBox="0 0 1920 1080">
	<g id="blender_frame_26">
		<g id="blender_object_Stroke.005">
			<!--Layer: Lines.005-->
			<g id="Lines.005">
				<polyline stroke="#909697" stroke-opacity="1" fill="none" stroke-linecap="round" stroke-width="2" points="9.419346,539.693481 9.419346,693.331543 142.567413,720.944092 1448.316406,720.944031 1448.316406,538.856201" />
				<polyline stroke="#909697" stroke-opacity="1" fill="none" stroke-linecap="round" stroke-width="2" points="1916.888184,538.024109 1916.888184,720.943970 1464.436279,720.944031 1464.436279,538.856201" />
				<polyline stroke="#909697" stroke-opacity="1" fill="none" stroke-linecap="round" stroke-width="2" points="9.419346,540.307007 9.419346,386.668945 142.567352,359.056213 1448.316406,359.055725 1448.316406,541.143616" />
				<polyline stroke="#909697" stroke-opacity="1" fill="none" stroke-linecap="round" stroke-width="2" points="1916.888184,541.975464 1916.888184,359.055542 1464.436279,359.055725 1464.436279,541.143616" />
				<polygon stroke="#909697" stroke-opacity="1" fill="none" stroke-linecap="round" stroke-width="2" points="1404.477539,710.588257 1393.545410,710.588257 1393.545410,702.701904 1404.477539,702.701904" />
				<polygon stroke="#909697" stroke-opacity="1" fill="none" stroke-linecap="round" stroke-width="2" points="1368.981689,710.588257 1358.049805,710.588257 1358.049805,702.701904 1368.981689,702.701904" />
				<polygon stroke="#909697" stroke-opacity="1" fill="none" stroke-linecap="round" stroke-width="2" points="1333.485840,710.588257 1322.554077,710.588257 1322.554077,702.701904 1333.485840,702.701904" />
				<polygon stroke="#909697" stroke-opacity="1" fill="none" stroke-linecap="round" stroke-width="2" points="1297.990356,710.588257 1287.058350,710.588318 1287.058350,702.701965 1297.990356,702.701904" />
				<polygon stroke="#909697" stroke-opacity="1" fill="none" stroke-linecap="round" stroke-width="2" points="1262.494629,710.588318 1251.562744,710.588318 1251.562744,702.701965 1262.494629,702.701965" />
				<polygon stroke="#909697" stroke-opacity="1" fill="none" stroke-linecap="round" stroke-width="2" points="1226.999023,710.588318 1216.067139,710.588318 1216.067139,702.701965 1226.999023,702.701965" />
				<polygon stroke="#909697" stroke-opacity="1" fill="none" stroke-linecap="round" stroke-width="2" points="1191.503174,710.588318 1180.571411,710.588318 1180.571411,702.701965 1191.503174,702.701965" />
				<polygon stroke="#909697" stroke-opacity="1" fill="none" stroke-linecap="round" stroke-width="2" points="1156.007568,710.588318 1145.075684,710.588318 1145.075684,702.701965 1156.007568,702.701965" />
				<polygon stroke="#909697" stroke-opacity="1" fill="none" stroke-linecap="round" stroke-width="2" points="1120.511963,710.588318 1109.579956,710.588318 1109.579956,702.701965 1120.511963,702.701965" />
				<polygon stroke="#909697" stroke-opacity="1" fill="none" stroke-linecap="round" stroke-width="2" points="1085.016113,710.588318 1074.084351,710.588379 1074.084351,702.701965 1085.016113,702.701965" />
				<polygon stroke="#909697" stroke-opacity="1" fill="none" stroke-linecap="round" stroke-width="2" points="1049.520508,710.588379 1038.588501,710.588379 1038.588501,702.701965 1049.520508,702.701965" />
				<polygon stroke="#909697" stroke-opacity="1" fill="none" stroke-linecap="round" stroke-width="2" points="1014.024780,710.588379 1003.092957,710.588379 1003.092957,702.701965 1014.024780,702.701965" />
				<polygon stroke="#909697" stroke-opacity="1" fill="none" stroke-linecap="round" stroke-width="2" points="978.529114,710.588379 967.597290,710.588379 967.597290,702.701965 978.529114,702.701965" />
				<polygon stroke="#909697" stroke-opacity="1" fill="none" stroke-linecap="round" stroke-width="2" points="943.033325,710.588379 932.101501,710.588379 932.101501,702.701965 943.033325,702.701965" />
				<polygon stroke="#909697" stroke-opacity="1" fill="none" stroke-linecap="round" stroke-width="2" points="907.537781,710.588379 896.605835,710.588379 896.605835,702.701965 907.537781,702.701965" />
				<polygon stroke="#909697" stroke-opacity="1" fill="none" stroke-linecap="round" stroke-width="2" points="872.042114,710.588379 861.110291,710.588379 861.110291,702.701965 872.042114,702.701965" />
				<polygon stroke="#909697" stroke-opacity="1" fill="none" stroke-linecap="round" stroke-width="2" points="836.546387,710.588379 825.614563,710.588379 825.614563,702.701965 836.546387,702.701965" />
				<polygon stroke="#909697" stroke-opacity="1" fill="none" stroke-linecap="round" stroke-width="2" points="801.050659,710.588379 790.118774,710.588379 790.118774,702.701965 801.050659,702.701965" />
				<polygon stroke="#909697" stroke-opacity="1" fill="none" stroke-linecap="round" stroke-width="2" points="765.555054,710.588379 754.623169,710.588379 754.623169,702.701965 765.555054,702.701965" />
				<polygon stroke="#909697" stroke-opacity="1" fill="none" stroke-linecap="round" stroke-width="2" points="730.059326,710.588379 719.127441,710.588379 719.127441,702.701965 730.059326,702.701965" />
				<polygon stroke="#909697" stroke-opacity="1" fill="none" stroke-linecap="round" stroke-width="2" points="694.563538,710.588379 683.631714,710.588379 683.631714,702.701965 694.563538,702.701965" />
				<polygon stroke="#909697" stroke-opacity="1" fill="none" stroke-linecap="round" stroke-width="2" points="659.067993,710.588379 648.136108,710.588379 648.136108,702.702026 659.067993,702.701965" />
				<polygon stroke="#909697" stroke-opacity="1" fill="none" stroke-linecap="round" stroke-width="2" points="623.572205,710.588379 612.640320,710.588379 612.640320,702.702026 623.572205,702.702026" />
				<polygon stroke="#909697" stroke-opacity="1" fill="none" stroke-linecap="round" stroke-width="2" points="588.076538,710.588379 577.144592,710.588379 577.144592,702.702026 588.076538,702.702026" />
				<polygon stroke="#909697" stroke-opacity="1" fill="none" stroke-linecap="round" stroke-width="2" points="552.580872,710.588379 541.648987,710.588379 541.648987,702.702026 552.580872,702.702026" />
				<polygon stroke="#909697" stroke-opacity="1" fill="none" stroke-linecap="round" stroke-width="2" points="517.085144,710.588379 506.153290,710.588379 506.153290,702.702026 517.085144,702.702026" />
				<polygon stroke="#909697" stroke-opacity="1" fill="none" stroke-linecap="round" stroke-width="2" points="481.589417,710.588379 470.657501,710.588379 470.657501,702.702026 481.589417,702.702026" />
				<polygon stroke="#909697" stroke-opacity="1" fill="none" stroke-linecap="round" stroke-width="2" points="446.093781,710.588379 435.161926,710.588379 435.161926,702.702026 446.093781,702.702026" />
				<polygon stroke="#909697" stroke-opacity="1" fill="none" stroke-linecap="round" stroke-width="2" points="410.598053,710.588379 399.666199,710.588379 399.666199,702.702026 410.598053,702.702026" />
				<polygon stroke="#909697" stroke-opacity="1" fill="none" stroke-linecap="round" stroke-width="2" points="375.102295,710.588379 364.170471,710.588379 364.170471,702.702026 375.102295,702.702026" />
				<polygon stroke="#909697" stroke-opacity="1" fill="none" stroke-linecap="round" stroke-width="2" points="339.606689,710.588379 328.674835,710.588379 328.674835,702.702026 339.606689,702.702026" />
				<polygon stroke="#909697" stroke-opacity="1" fill="none" stroke-linecap="round" stroke-width="2" points="304.110962,710.588379 293.179077,710.588379 293.179077,702.702026 304.110962,702.702026" />
				<polygon stroke="#909697" stroke-opacity="1" fill="none" stroke-linecap="round" stroke-width="2" points="268.615387,710.588379 257.683472,710.588379 257.683472,702.702026 268.615387,702.702026" />
				<polygon stroke="#909697" stroke-opacity="1" fill="none" stroke-linecap="round" stroke-width="2" points="233.119644,710.588379 222.187729,710.588440 222.187729,702.702026 233.119644,702.702026" />
				<polygon stroke="#909697" stroke-opacity="1" fill="none" stroke-linecap="round" stroke-width="2" points="197.623962,710.588440 186.692047,710.588440 186.692047,702.702026 197.623962,702.702026" />
				<polygon stroke="#909697" stroke-opacity="1" fill="none" stroke-linecap="round" stroke-width="2" points="162.128281,710.588440 151.196426,710.588440 151.196426,702.702026 162.128281,702.702026" />
				<polygon stroke="#909697" stroke-opacity="1" fill="none" stroke-linecap="round" stroke-width="2" points="126.632538,710.588440 115.700684,710.588440 115.700684,702.702026 126.632538,702.702026" />
				<polygon stroke="#909697" stroke-opacity="1" fill="none" stroke-linecap="round" stroke-width="2" points="1404.477539,653.767700 1393.545410,653.767700 1393.545410,645.881348 1404.477539,645.881348" />
				<polygon stroke="#909697" stroke-opacity="1" fill="none" stroke-linecap="round" stroke-width="2" points="1368.981689,653.767700 1358.049805,653.767700 1358.049805,645.881348 1368.981689,645.881348" />
				<polygon stroke="#909697" stroke-opacity="1" fill="none" stroke-linecap="round" stroke-width="2" points="1333.485840,653.767700 1322.554077,653.767700 1322.554077,645.881348 1333.485840,645.881348" />
				<polygon stroke="#909697" stroke-opacity="1" fill="none" stroke-linecap="round" stroke-width="2" points="1297.990356,653.767700 1287.058350,653.767700 1287.058350,645.881348 1297.990356,645.881348" />
				<polygon stroke="#909697" stroke-opacity="1" fill="none" stroke-linecap="round" stroke-width="2" points="1262.494629,653.767700 1251.562744,653.767700 1251.562744,645.881348 1262.494629,645.881348" />
				<polygon stroke="#909697" stroke-opacity="1" fill="none" stroke-linecap="round" stroke-width="2" points="1226.999023,653.767700 1216.067139,653.767700 1216.067139,645.881348 1226.999023,645.881348" />
				<polygon stroke="#909697" stroke-opacity="1" fill="none" stroke-linecap="round" stroke-width="2" points="1191.503174,653.767700 1180.571411,653.767700 1180.571411,645.881348 1191.503174,645.881348" />
				<polygon stroke="#909697" stroke-opacity="1" fill="none" stroke-linecap="round" stroke-width="2" points="1156.007568,653.767700 1145.075684,653.767700 1145.075684,645.881348 1156.007568,645.881348" />
				<polygon stroke="#909697" stroke-opacity="1" fill="none" stroke-linecap="round" stroke-width="2" points="1120.511963,653.767700 1109.579956,653.767700 1109.579956,645.881348 1120.511963,645.881348" />
				<polygon stroke="#909697" stroke-opacity="1" fill="none" stroke-linecap="round" stroke-width="2" points="1085.016113,653.767700 1074.084351,653.767700 1074.084351,645.881348 1085.016113,645.881348" />
				<polygon stroke="#909697" stroke-opacity="1" fill="none" stroke-linecap="round" stroke-width="2" points="1049.520508,653.767700 1038.588501,653.767700 1038.588501,645.881348 1049.520508,645.881348" />
				<polygon stroke="#909697" stroke-opacity="1" fill="none" stroke-linecap="round" stroke-width="2" points="1014.024780,653.767700 1003.092957,653.767700 1003.092957,645.881348 1014.024780,645.881348" />
				<polygon stroke="#909697" stroke-opacity="1" fill="none" stroke-linecap="round" stroke-width="2" points="978.529114,653.767700 967.597168,653.767700 967.597168,645.881348 978.529114,645.881348" />
				<polygon stroke="#909697" stroke-opacity="1" fill="none" stroke-linecap="round" stroke-width="2" points="943.033325,653.767700 932.101501,653.767700 932.101501,645.881348 943.033325,645.881348" />
				<polygon stroke="#909697" stroke-opacity="1" fill="none" stroke-linecap="round" stroke-width="2" points="907.537781,653.767700 896.605835,653.767700 896.605835,645.881348 907.537781,645.881348" />
				<polygon stroke="#909697" stroke-opacity="1" fill="none" stroke-linecap="round" stroke-width="2" points="872.042114,653.767700 861.110229,653.767700 861.110229,645.881348 872.042114,645.881348" />
				<polygon stroke="#909697" stroke-opacity="1" fill="none" stroke-linecap="round" stroke-width="2" points="836.546387,653.767700 825.614563,653.767700 825.614563,645.881348 836.546387,645.881348" />
				<polygon stroke="#909697" stroke-opacity="1" fill="none" stroke-linecap="round" stroke-width="2" points="801.050659,653.767761 790.118774,653.767761 790.118774,645.881348 801.050659,645.881348" />
				<polygon stroke="#909697" stroke-opacity="1" fill="none" stroke-linecap="round" stroke-width="2" points="765.555054,653.767761 754.623169,653.767761 754.623169,645.881348 765.555054,645.881348" />
				<polygon stroke="#909697" stroke-opacity="1" fill="none" stroke-linecap="round" stroke-width="2" points="730.059326,653.767761 719.127441,653.767761 719.127441,645.881348 730.059326,645.881348" />
				<polygon stroke="#909697" stroke-opacity="1" fill="none" stroke-linecap="round" stroke-width="2" points="694.563538,653.767761 683.631714,653.767761 683.631714,645.881348 694.563538,645.881348" />
				<polygon stroke="#909697" stroke-opacity="1" fill="none" stroke-linecap="round" stroke-width="2" points="659.067993,653.767761 648.136108,653.767761 648.136108,645.881348 659.067993,645.881348" />
				<polygon stroke="#909697" stroke-opacity="1" fill="none" stroke-linecap="round" stroke-width="2" points="623.572205,653.767761 612.640320,653.767761 612.640320,645.881348 623.572205,645.881348" />
				<polygon stroke="#909697" stroke-opacity="1" fill="none" stroke-linecap="round" stroke-width="2" points="588.076538,653.767761 577.144592,653.767761 577.144592,645.881348 588.076538,645.881348" />
				<polygon stroke="#909697" stroke-opacity="1" fill="none" stroke-linecap="round" stroke-width="2" points="552.580872,653.767761 541.648987,653.767761 541.648987,645.881348 552.580872,645.881348" />
				<polygon stroke="#909697" stroke-opacity="1" fill="none" stroke-linecap="round" stroke-width="2" points="517.085144,653.767761 506.153290,653.767761 506.153290,645.881348 517.085144,645.881348" />
				<polygon stroke="#909697" stroke-opacity="1" fill="none" stroke-linecap="round" stroke-width="2" points="481.589417,653.767822 470.657501,653.767822 470.657501,645.881348 481.589417,645.881348" />
				<polygon stroke="#909697" stroke-opacity="1" fill="none" stroke-linecap="round" stroke-width="2" points="446.093781,653.767822 435.161926,653.767822 435.161926,645.881348 446.093781,645.881348" />
				<polygon stroke="#909697" stroke-opacity="1" fill="none" stroke-linecap="round" stroke-width="2" points="410.598053,653.767822 399.666199,653.767822 399.666199,645.881348 410.598053,645.881348" />
				<polygon stroke="#909697" stroke-opacity="1" fill="none" stroke-linecap="round" stroke-width="2" points="375.102295,653.767822 364.170471,653.767822 364.170471,645.881348 375.102295,645.881348" />
				<polygon stroke="#909697" stroke-opacity="1" fill="none" stroke-linecap="round" stroke-width="2" points="339.606689,653.767822 328.674835,653.767822 328.674835,645.881348 339.606689,645.881348" />
				<polygon stroke="#909697" stroke-opacity="1" fill="none" stroke-linecap="round" stroke-width="2" points="304.110962,653.767822 293.179077,653.767822 293.179077,645.881348 304.110962,645.881348" />
				<polygon stroke="#909697" stroke-opacity="1" fill="none" stroke-linecap="round" stroke-width="2" points="268.615387,653.767822 257.683472,653.767822 257.683472,645.881409 268.615387,645.881409" />
				<polygon stroke="#909697" stroke-opacity="1" fill="none" stroke-linecap="round" stroke-width="2" points="233.119644,653.767822 222.187729,653.767822 222.187729,645.881409 233.119644,645.881409" />
				<polygon stroke="#909697" stroke-opacity="1" fill="none" stroke-linecap="round" stroke-width="2" points="197.623962,653.767822 186.692047,653.767822 186.692047,645.881409 197.623962,645.881409" />
				<polygon stroke="#909697" stroke-opacity="1" fill="none" stroke-linecap="round" stroke-width="2" points="162.128281,653.767822 151.196426,653.767822 151.196426,645.881409 162.128281,645.881409" />
				<polygon stroke="#909697" stroke-opacity="1" fill="none" stroke-linecap="round" stroke-width="2" points="126.632538,653.767822 115.700684,653.767822 115.700684,645.881409 126.632538,645.881409" />
				<polygon stroke="#909697" stroke-opacity="1" fill="none" stroke-linecap="round" stroke-width="2" points="91.136856,653.767822 80.205002,653.767822 80.205002,645.881409 91.136856,645.881409" />
				<polygon stroke="#909697" stroke-opacity="1" fill="none" stroke-linecap="round" stroke-width="2" points="55.641174,653.767822 44.709320,653.767822 44.709320,645.881409 55.641174,645.881409" />
				<polygon stroke="#909697" stroke-opacity="1" fill="none" stroke-linecap="round" stroke-width="2" points="1404.477539,596.947083 1393.545410,596.947083 1393.545410,589.060669 1404.477539,589.060669" />
				<polygon stroke="#909697" stroke-opacity="1" fill="none" stroke-linecap="round" stroke-width="2" points="1368.981689,596.947083 1358.049805,596.947083 1358.049805,589.060669 1368.981689,589.060669" />
				<polygon stroke="#909697" stroke-opacity="1" fill="none" stroke-linecap="round" stroke-width="2" points="1333.485840,596.947083 1322.554077,596.947083 1322.554077,589.060669 1333.485840,589.060669" />
				<polygon stroke="#909697" stroke-opacity="1" fill="none" stroke-linecap="round" stroke-width="2" points="1297.990356,596.947083 1287.058350,596.947083 1287.058350,589.060669 1297.990356,589.060669" />
				<polygon stroke="#909697" stroke-opacity="1" fill="none" stroke-linecap="round" stroke-width="2" points="1262.494629,596.947083 1251.562744,596.947083 1251.562744,589.060669 1262.494629,589.060669" />
				<polygon stroke="#909697" stroke-opacity="1" fill="none" stroke-linecap="round" stroke-width="2" points="1226.999023,596.947083 1216.067139,596.947083 1216.067139,589.060669 1226.999023,589.060669" />
				<polygon stroke="#909697" stroke-opacity="1" fill="none" stroke-linecap="round" stroke-width="2" points="1191.503174,596.947144 1180.571411,596.947144 1180.571411,589.060730 1191.503174,589.060730" />
				<polygon stroke="#909697" stroke-opacity="1" fill="none" stroke-linecap="round" stroke-width="2" points="1156.007568,596.947144 1145.075684,596.947144 1145.075684,589.060730 1156.007568,589.060730" />
				<polygon stroke="#909697" stroke-opacity="1" fill="none" stroke-linecap="round" stroke-width="2" points="1120.511841,596.947144 1109.579956,596.947144 1109.579956,589.060730 1120.511841,589.060730" />
				<polygon stroke="#909697" stroke-opacity="1" fill="none" stroke-linecap="round" stroke-width="2" points="1085.016113,596.947144 1074.084351,596.947144 1074.084351,589.060730 1085.016113,589.060730" />
				<polygon stroke="#909697" stroke-opacity="1" fill="none" stroke-linecap="round" stroke-width="2" points="1049.520508,596.947144 1038.588501,596.947144 1038.588501,589.060730 1049.520508,589.060730" />
				<polygon stroke="#909697" stroke-opacity="1" fill="none" stroke-linecap="round" stroke-width="2" points="1014.024780,596.947144 1003.092957,596.947144 1003.092957,589.060730 1014.024780,589.060730" />
				<polygon stroke="#909697" stroke-opacity="1" fill="none" stroke-linecap="round" stroke-width="2" points="978.529114,596.947144 967.597168,596.947144 967.597168,589.060730 978.529114,589.060730" />
				<polygon stroke="#909697" stroke-opacity="1" fill="none" stroke-linecap="round" stroke-width="2" points="943.033325,596.947144 932.101501,596.947144 932.101501,589.060730 943.033325,589.060730" />
				<polygon stroke="#909697" stroke-opacity="1" fill="none" stroke-linecap="round" stroke-width="2" points="907.537781,596.947144 896.605835,596.947144 896.605835,589.060730 907.537781,589.060730" />
				<polygon stroke="#909697" stroke-opacity="1" fill="none" stroke-linecap="round" stroke-width="2" points="872.042114,596.947144 861.110229,596.947144 861.110229,589.060730 872.042114,589.060730" />
				<polygon stroke="#909697" stroke-opacity="1" fill="none" stroke-linecap="round" stroke-width="2" points="836.546387,596.947144 825.614502,596.947144 825.614502,589.060730 836.546387,589.060730" />
				<polygon stroke="#909697" stroke-opacity="1" fill="none" stroke-linecap="round" stroke-width="2" points="801.050659,596.947144 790.118774,596.947144 790.118774,589.060730 801.050659,589.060730" />
				<polygon stroke="#909697" stroke-opacity="1" fill="none" stroke-linecap="round" stroke-width="2" points="765.555054,596.947144 754.623169,596.947144 754.623169,589.060730 765.555054,589.060730" />
				<polygon stroke="#909697" stroke-opacity="1" fill="none" stroke-linecap="round" stroke-width="2" points="730.059326,596.947144 719.127441,596.947144 719.127441,589.060791 730.059326,589.060791" />
				<polygon stroke="#909697" stroke-opacity="1" fill="none" stroke-linecap="round" stroke-width="2" points="694.563538,596.947144 683.631714,596.947144 683.631714,589.060791 694.563538,589.060791" />
				<polygon stroke="#909697" stroke-opacity="1" fill="none" stroke-linecap="round" stroke-width="2" points="659.067993,596.947144 648.136108,596.947144 648.136108,589.060791 659.067993,589.060791" />
				<polygon stroke="#909697" stroke-opacity="1" fill="none" stroke-linecap="round" stroke-width="2" points="623.572205,596.947144 612.640320,596.947144 612.640320,589.060791 623.572205,589.060791" />
				<polygon stroke="#909697" stroke-opacity="1" fill="none" stroke-linecap="round" stroke-width="2" points="588.076538,596.947144 577.144592,596.947144 577.144592,589.060791 588.076538,589.060791" />
				<polygon stroke="#909697" stroke-opacity="1" fill="none" stroke-linecap="round" stroke-width="2" points="552.580872,596.947144 541.648987,596.947144 541.648987,589.060791 552.580872,589.060791" />
				<polygon stroke="#909697" stroke-opacity="1" fill="none" stroke-linecap="round" stroke-width="2" points="517.085144,596.947144 506.153290,596.947144 506.153290,589.060791 517.085144,589.060791" />
				<polygon stroke="#909697" stroke-opacity="1" fill="none" stroke-linecap="round" stroke-width="2" points="481.589417,596.947144 470.657501,596.947144 470.657501,589.060791 481.589417,589.060791" />
				<polygon stroke="#909697" stroke-opacity="1" fill="none" stroke-linecap="round" stroke-width="2" points="446.093781,596.947144 435.161926,596.947144 435.161926,589.060791 446.093781,589.060791" />
				<polygon stroke="#909697" stroke-opacity="1" fill="none" stroke-linecap="round" stroke-width="2" points="410.598053,596.947144 399.666199,596.947144 399.666199,589.060791 410.598053,589.060791" />
				<polygon stroke="#909697" stroke-opacity="1" fill="none" stroke-linecap="round" stroke-width="2" points="375.102295,596.947144 364.170471,596.947144 364.170471,589.060791 375.102295,589.060791" />
				<polygon stroke="#909697" stroke-opacity="1" fill="none" stroke-linecap="round" stroke-width="2" points="339.606689,596.947144 328.674835,596.947144 328.674835,589.060791 339.606689,589.060791" />
				<polygon stroke="#909697" stroke-opacity="1" fill="none" stroke-linecap="round" stroke-width="2" points="304.110962,596.947144 293.179077,596.947144 293.179077,589.060791 304.110962,589.060791" />
				<polygon stroke="#909697" stroke-opacity="1" fill="none" stroke-linecap="round" stroke-width="2" points="268.615387,596.947144 257.683472,596.947144 257.683472,589.060791 268.615387,589.060791" />
				<polygon stroke="#909697" stroke-opacity="1" fill="none" stroke-linecap="round" stroke-width="2" points="233.119644,596.947144 222.187729,596.947144 222.187729,589.060791 233.119644,589.060791" />
				<polygon stroke="#909697" stroke-opacity="1" fill="none" stroke-linecap="round" stroke-width="2" points="197.623962,596.947144 186.692047,596.947144 186.692047,589.060791 197.623962,589.060791" />
				<polygon stroke="#909697" stroke-opacity="1" fill="none" stroke-linecap="round" stroke-width="2" points="162.128281,596.947144 151.196426,596.947144 151.196426,589.060791 162.128281,589.060791" />
				<polygon stroke="#909697" stroke-opacity="1" fill="none" stroke-linecap="round" stroke-width="2" points="126.632538,596.947144 115.700684,596.947144 115.700684,589.060791 126.632538,589.060791" />
				<polygon stroke="#909697" stroke-opacity="1" fill="none" stroke-linecap="round" stroke-width="2" points="91.136856,596.947144 80.205002,596.947144 80.205002,589.060791 91.136856,589.060791" />
				<polygon stroke="#909697" stroke-opacity="1" fill="none" stroke-linecap="round" stroke-width="2" points="55.641174,596.947144 44.709320,596.947144 44.709320,589.060791 55.641174,589.060791" />
				<polygon stroke="#909697" stroke-opacity="1" fill="none" stroke-linecap="round" stroke-width="2" points="1404.477539,369.411194 1393.545654,369.411194 1393.545654,377.297546 1404.477539,377.297546" />
				<polygon stroke="#909697" stroke-opacity="1" fill="none" stroke-linecap="round" stroke-width="2" points="1368.981934,369.411194 1358.049805,369.411194 1358.049805,377.297607 1368.981934,377.297546" />
				<polygon stroke="#909697" stroke-opacity="1" fill="none" stroke-linecap="round" stroke-width="2" points="1333.486084,369.411194 1322.554199,369.411194 1322.554199,377.297607 1333.486084,377.297607" />
				<polygon stroke="#909697" stroke-opacity="1" fill="none" stroke-linecap="round" stroke-width="2" points="1297.990479,369.411194 1287.058594,369.411255 1287.058594,377.297607 1297.990479,377.297607" />
				<polygon stroke="#909697" stroke-opacity="1" fill="none" stroke-linecap="round" stroke-width="2" points="1262.494873,369.411255 1251.562866,369.411255 1251.562866,377.297607 1262.494873,377.297607" />
				<polygon stroke="#909697" stroke-opacity="1" fill="none" stroke-linecap="round" stroke-width="2" points="1226.999146,369.411255 1216.067261,369.411255 1216.067261,377.297607 1226.999146,377.297607" />
				<polygon stroke="#909697" stroke-opacity="1" fill="none" stroke-linecap="round" stroke-width="2" points="1191.503296,369.411255 1180.571533,369.411255 1180.571533,377.297607 1191.503296,377.297607" />
				<polygon stroke="#909697" stroke-opacity="1" fill="none" stroke-linecap="round" stroke-width="2" points="1156.007690,369.411255 1145.075928,369.411255 1145.075928,377.297668 1156.007690,377.297607" />
				<polygon stroke="#909697" stroke-opacity="1" fill="none" stroke-linecap="round" stroke-width="2" points="1120.512085,369.411255 1109.580078,369.411255 1109.580078,377.297668 1120.512085,377.297668" />
				<polygon stroke="#909697" stroke-opacity="1" fill="none" stroke-linecap="round" stroke-width="2" points="1085.016235,369.411255 1074.084473,369.411316 1074.084473,377.297668 1085.016235,377.297668" />
				<polygon stroke="#909697" stroke-opacity="1" fill="none" stroke-linecap="round" stroke-width="2" points="1049.520752,369.411316 1038.588745,369.411316 1038.588745,377.297729 1049.520752,377.297668" />
				<polygon stroke="#909697" stroke-opacity="1" fill="none" stroke-linecap="round" stroke-width="2" points="1014.024902,369.411316 1003.093079,369.411316 1003.093079,377.297729 1014.024902,377.297729" />
				<polygon stroke="#909697" stroke-opacity="1" fill="none" stroke-linecap="round" stroke-width="2" points="978.529236,369.411316 967.597290,369.411316 967.597290,377.297729 978.529236,377.297729" />
				<polygon stroke="#909697" stroke-opacity="1" fill="none" stroke-linecap="round" stroke-width="2" points="943.033630,369.411316 932.101685,369.411377 932.101685,377.297729 943.033630,377.297729" />
				<polygon stroke="#909697" stroke-opacity="1" fill="none" stroke-linecap="round" stroke-width="2" points="907.537903,369.411377 896.605957,369.411377 896.605957,377.297729 907.537903,377.297729" />
				<polygon stroke="#909697" stroke-opacity="1" fill="none" stroke-linecap="round" stroke-width="2" points="872.042114,369.411377 861.110229,369.411377 861.110229,377.297729 872.042114,377.297729" />
				<polygon stroke="#909697" stroke-opacity="1" fill="none" stroke-linecap="round" stroke-width="2" points="836.546509,369.411377 825.614685,369.411377 825.614685,377.297729 836.546509,377.297729" />
				<polygon stroke="#909697" stroke-opacity="1" fill="none" stroke-linecap="round" stroke-width="2" points="801.050598,369.411377 790.118774,369.411377 790.118774,377.297791 801.050598,377.297791" />
				<polygon stroke="#909697" stroke-opacity="1" fill="none" stroke-linecap="round" stroke-width="2" points="765.555054,369.411377 754.623169,369.411377 754.623169,377.297791 765.555054,377.297791" />
				<polygon stroke="#909697" stroke-opacity="1" fill="none" stroke-linecap="round" stroke-width="2" points="730.059387,369.411377 719.127563,369.411377 719.127563,377.297791 730.059387,377.297791" />
				<polygon stroke="#909697" stroke-opacity="1" fill="none" stroke-linecap="round" stroke-width="2" points="694.563538,369.411438 683.631714,369.411438 683.631714,377.297852 694.563538,377.297791" />
				<polygon stroke="#909697" stroke-opacity="1" fill="none" stroke-linecap="round" stroke-width="2" points="659.067993,369.411438 648.136108,369.411438 648.136108,377.297852 659.067993,377.297852" />
				<polygon stroke="#909697" stroke-opacity="1" fill="none" stroke-linecap="round" stroke-width="2" points="623.572388,369.411438 612.640442,369.411438 612.640442,377.297852 623.572388,377.297852" />
				<polygon stroke="#909697" stroke-opacity="1" fill="none" stroke-linecap="round" stroke-width="2" points="588.076660,369.411499 577.144775,369.411499 577.144775,377.297852 588.076660,377.297852" />
				<polygon stroke="#909697" stroke-opacity="1" fill="none" stroke-linecap="round" stroke-width="2" points="552.580872,369.411499 541.648987,369.411499 541.648987,377.297852 552.580872,377.297852" />
				<polygon stroke="#909697" stroke-opacity="1" fill="none" stroke-linecap="round" stroke-width="2" points="517.085266,369.411499 506.153412,369.411499 506.153412,377.297852 517.085266,377.297852" />
				<polygon stroke="#909697" stroke-opacity="1" fill="none" stroke-linecap="round" stroke-width="2" points="481.589539,369.411499 470.657684,369.411499 470.657684,377.297913 481.589539,377.297852" />
				<polygon stroke="#909697" stroke-opacity="1" fill="none" stroke-linecap="round" stroke-width="2" points="446.093781,369.411499 435.161926,369.411499 435.161926,377.297913 446.093781,377.297913" />
				<polygon stroke="#909697" stroke-opacity="1" fill="none" stroke-linecap="round" stroke-width="2" points="410.598175,369.411499 399.666321,369.411499 399.666321,377.297913 410.598175,377.297913" />
				<polygon stroke="#909697" stroke-opacity="1" fill="none" stroke-linecap="round" stroke-width="2" points="375.102417,369.411560 364.170563,369.411560 364.170563,377.297974 375.102417,377.297974" />
				<polygon stroke="#909697" stroke-opacity="1" fill="none" stroke-linecap="round" stroke-width="2" points="339.606689,369.411560 328.674835,369.411560 328.674835,377.297974 339.606689,377.297974" />
				<polygon stroke="#909697" stroke-opacity="1" fill="none" stroke-linecap="round" stroke-width="2" points="304.111115,369.411560 293.179199,369.411560 293.179199,377.297974 304.111115,377.297974" />
				<polygon stroke="#909697" stroke-opacity="1" fill="none" stroke-linecap="round" stroke-width="2" points="268.615387,369.411621 257.683472,369.411621 257.683472,377.297974 268.615387,377.297974" />
				<polygon stroke="#909697" stroke-opacity="1" fill="none" stroke-linecap="round" stroke-width="2" points="233.119644,369.411621 222.187790,369.411621 222.187790,377.297974 233.119644,377.297974" />
				<polygon stroke="#909697" stroke-opacity="1" fill="none" stroke-linecap="round" stroke-width="2" points="197.624023,369.411621 186.692047,369.411621 186.692047,377.297974 197.624023,377.297974" />
				<polygon stroke="#909697" stroke-opacity="1" fill="none" stroke-linecap="round" stroke-width="2" points="162.128281,369.411621 151.196426,369.411621 151.196426,377.298035 162.128281,377.298035" />
				<polygon stroke="#909697" stroke-opacity="1" fill="none" stroke-linecap="round" stroke-width="2" points="126.632599,369.411621 115.700745,369.411621 115.700745,377.298035 126.632599,377.298035" />
				<polygon stroke="#909697" stroke-opacity="1" fill="none" stroke-linecap="round" stroke-width="2" points="1404.477539,426.231750 1393.545654,426.231750 1393.545654,434.118164 1404.477539,434.118164" />
				<polygon stroke="#909697" stroke-opacity="1" fill="none" stroke-linecap="round" stroke-width="2" points="1368.981934,426.231750 1358.049805,426.231750 1358.049805,434.118164 1368.981934,434.118164" />
				<polygon stroke="#909697" stroke-opacity="1" fill="none" stroke-linecap="round" stroke-width="2" points="1333.486084,426.231812 1322.554199,426.231812 1322.554199,434.118225 1333.486084,434.118164" />
				<polygon stroke="#909697" stroke-opacity="1" fill="none" stroke-linecap="round" stroke-width="2" points="1297.990479,426.231812 1287.058594,426.231812 1287.058594,434.118225 1297.990479,434.118225" />
				<polygon stroke="#909697" stroke-opacity="1" fill="none" stroke-linecap="round" stroke-width="2" points="1262.494873,426.231812 1251.562866,426.231812 1251.562866,434.118225 1262.494873,434.118225" />
				<polygon stroke="#909697" stroke-opacity="1" fill="none" stroke-linecap="round" stroke-width="2" points="1226.999146,426.231812 1216.067261,426.231873 1216.067261,434.118225 1226.999146,434.118225" />
				<polygon stroke="#909697" stroke-opacity="1" fill="none" stroke-linecap="round" stroke-width="2" points="1191.503296,426.231873 1180.571533,426.231873 1180.571533,434.118225 1191.503296,434.118225" />
				<polygon stroke="#909697" stroke-opacity="1" fill="none" stroke-linecap="round" stroke-width="2" points="1156.007690,426.231873 1145.075928,426.231873 1145.075928,434.118225 1156.007690,434.118225" />
				<polygon stroke="#909697" stroke-opacity="1" fill="none" stroke-linecap="round" stroke-width="2" points="1120.512207,426.231873 1109.580200,426.231873 1109.580200,434.118286 1120.512207,434.118225" />
				<polygon stroke="#909697" stroke-opacity="1" fill="none" stroke-linecap="round" stroke-width="2" points="1085.016235,426.231873 1074.084473,426.231873 1074.084473,434.118286 1085.016235,434.118286" />
				<polygon stroke="#909697" stroke-opacity="1" fill="none" stroke-linecap="round" stroke-width="2" points="1049.520752,426.231873 1038.588867,426.231873 1038.588867,434.118286 1049.520752,434.118286" />
				<polygon stroke="#909697" stroke-opacity="1" fill="none" stroke-linecap="round" stroke-width="2" points="1014.025024,426.231873 1003.093201,426.231934 1003.093201,434.118286 1014.025024,434.118286" />
				<polygon stroke="#909697" stroke-opacity="1" fill="none" stroke-linecap="round" stroke-width="2" points="978.529236,426.231934 967.597290,426.231934 967.597290,434.118286 978.529236,434.118286" />
				<polygon stroke="#909697" stroke-opacity="1" fill="none" stroke-linecap="round" stroke-width="2" points="943.033630,426.231934 932.101685,426.231934 932.101685,434.118347 943.033630,434.118347" />
				<polygon stroke="#909697" stroke-opacity="1" fill="none" stroke-linecap="round" stroke-width="2" points="907.537964,426.231934 896.606140,426.231934 896.606140,434.118347 907.537964,434.118347" />
				<polygon stroke="#909697" stroke-opacity="1" fill="none" stroke-linecap="round" stroke-width="2" points="872.042114,426.231934 861.110229,426.231934 861.110229,434.118347 872.042114,434.118347" />
				<polygon stroke="#909697" stroke-opacity="1" fill="none" stroke-linecap="round" stroke-width="2" points="836.546509,426.231995 825.614685,426.231995 825.614685,434.118347 836.546509,434.118347" />
				<polygon stroke="#909697" stroke-opacity="1" fill="none" stroke-linecap="round" stroke-width="2" points="801.050781,426.231995 790.118896,426.231995 790.118896,434.118408 801.050781,434.118347" />
				<polygon stroke="#909697" stroke-opacity="1" fill="none" stroke-linecap="round" stroke-width="2" points="765.555054,426.231995 754.623169,426.231995 754.623169,434.118408 765.555054,434.118408" />
				<polygon stroke="#909697" stroke-opacity="1" fill="none" stroke-linecap="round" stroke-width="2" points="730.059387,426.231995 719.127563,426.231995 719.127563,434.118408 730.059387,434.118408" />
				<polygon stroke="#909697" stroke-opacity="1" fill="none" stroke-linecap="round" stroke-width="2" points="694.563660,426.231995 683.631836,426.231995 683.631836,434.118408 694.563660,434.118408" />
				<polygon stroke="#909697" stroke-opacity="1" fill="none" stroke-linecap="round" stroke-width="2" points="659.067993,426.232117 648.136108,426.232117 648.136108,434.118408 659.067993,434.118408" />
				<polygon stroke="#909697" stroke-opacity="1" fill="none" stroke-linecap="round" stroke-width="2" points="623.572388,426.232117 612.640442,426.232117 612.640442,434.118469 623.572388,434.118469" />
				<polygon stroke="#909697" stroke-opacity="1" fill="none" stroke-linecap="round" stroke-width="2" points="588.076660,426.232117 577.144775,426.232117 577.144775,434.118469 588.076660,434.118469" />
				<polygon stroke="#909697" stroke-opacity="1" fill="none" stroke-linecap="round" stroke-width="2" points="552.580872,426.232117 541.648987,426.232117 541.648987,434.118469 552.580872,434.118469" />
				<polygon stroke="#909697" stroke-opacity="1" fill="none" stroke-linecap="round" stroke-width="2" points="517.085266,426.232178 506.153412,426.232178 506.153412,434.118469 517.085266,434.118469" />
				<polygon stroke="#909697" stroke-opacity="1" fill="none" stroke-linecap="round" stroke-width="2" points="481.589539,426.232178 470.657684,426.232178 470.657684,434.118469 481.589539,434.118469" />
				<polygon stroke="#909697" stroke-opacity="1" fill="none" stroke-linecap="round" stroke-width="2" points="446.093781,426.232178 435.161926,426.232178 435.161926,434.118469 446.093781,434.118469" />
				<polygon stroke="#909697" stroke-opacity="1" fill="none" stroke-linecap="round" stroke-width="2" points="410.598175,426.232178 399.666321,426.232178 399.666321,434.118530 410.598175,434.118530" />
				<polygon stroke="#909697" stroke-opacity="1" fill="none" stroke-linecap="round" stroke-width="2" points="375.102417,426.232178 364.170563,426.232178 364.170563,434.118530 375.102417,434.118530" />
				<polygon stroke="#909697" stroke-opacity="1" fill="none" stroke-linecap="round" stroke-width="2" points="339.606689,426.232239 328.674835,426.232239 328.674835,434.118530 339.606689,434.118530" />
				<polygon stroke="#909697" stroke-opacity="1" fill="none" stroke-linecap="round" stroke-width="2" points="304.111115,426.232239 293.179199,426.232239 293.179199,434.118530 304.111115,434.118530" />
				<polygon stroke="#909697" stroke-opacity="1" fill="none" stroke-linecap="round" stroke-width="2" points="268.615387,426.232239 257.683472,426.232239 257.683472,434.118591 268.615387,434.118591" />
				<polygon stroke="#909697" stroke-opacity="1" fill="none" stroke-linecap="round" stroke-width="2" points="233.119644,426.232239 222.187790,426.232239 222.187790,434.118591 233.119644,434.118591" />
				<polygon stroke="#909697" stroke-opacity="1" fill="none" stroke-linecap="round" stroke-width="2" points="197.624023,426.232300 186.692169,426.232300 186.692169,434.118591 197.624023,434.118591" />
				<polygon stroke="#909697" stroke-opacity="1" fill="none" stroke-linecap="round" stroke-width="2" points="162.128281,426.232300 151.196426,426.232300 151.196426,434.118591 162.128281,434.118591" />
				<polygon stroke="#909697" stroke-opacity="1" fill="none" stroke-linecap="round" stroke-width="2" points="126.632599,426.232300 115.700745,426.232300 115.700745,434.118591 126.632599,434.118591" />
				<polygon stroke="#909697" stroke-opacity="1" fill="none" stroke-linecap="round" stroke-width="2" points="91.136917,426.232300 80.205063,426.232300 80.205063,434.118713 91.136917,434.118713" />
				<polygon stroke="#909697" stroke-opacity="1" fill="none" stroke-linecap="round" stroke-width="2" points="55.641174,426.232300 44.709320,426.232300 44.709320,434.118713 55.641174,434.118713" />
				<polygon stroke="#909697" stroke-opacity="1" fill="none" stroke-linecap="round" stroke-width="2" points="1404.477539,483.052429 1393.545654,483.052429 1393.545654,490.938721 1404.477539,490.938721" />
				<polygon stroke="#909697" stroke-opacity="1" fill="none" stroke-linecap="round" stroke-width="2" points="1368.981934,483.052429 1358.049805,483.052429 1358.049805,490.938843 1368.981934,490.938843" />
				<polygon stroke="#909697" stroke-opacity="1" fill="none" stroke-linecap="round" stroke-width="2" points="1333.486084,483.052429 1322.554199,483.052429 1322.554199,490.938843 1333.486084,490.938843" />
				<polygon stroke="#909697" stroke-opacity="1" fill="none" stroke-linecap="round" stroke-width="2" points="1297.990479,483.052490 1287.058594,483.052490 1287.058594,490.938843 1297.990479,490.938843" />
				<polygon stroke="#909697" stroke-opacity="1" fill="none" stroke-linecap="round" stroke-width="2" points="1262.494873,483.052490 1251.562866,483.052490 1251.562866,490.938843 1262.494873,490.938843" />
				<polygon stroke="#909697" stroke-opacity="1" fill="none" stroke-linecap="round" stroke-width="2" points="1226.999146,483.052490 1216.067261,483.052490 1216.067261,490.938843 1226.999146,490.938843" />
				<polygon stroke="#909697" stroke-opacity="1" fill="none" stroke-linecap="round" stroke-width="2" points="1191.503418,483.052490 1180.571533,483.052490 1180.571533,490.938904 1191.503418,490.938904" />
				<polygon stroke="#909697" stroke-opacity="1" fill="none" stroke-linecap="round" stroke-width="2" points="1156.007690,483.052490 1145.075928,483.052551 1145.075928,490.938904 1156.007690,490.938904" />
				<polygon stroke="#909697" stroke-opacity="1" fill="none" stroke-linecap="round" stroke-width="2" points="1120.512207,483.052551 1109.580200,483.052551 1109.580200,490.938904 1120.512207,490.938904" />
				<polygon stroke="#909697" stroke-opacity="1" fill="none" stroke-linecap="round" stroke-width="2" points="1085.016235,483.052551 1074.084473,483.052551 1074.084473,490.938904 1085.016235,490.938904" />
				<polygon stroke="#909697" stroke-opacity="1" fill="none" stroke-linecap="round" stroke-width="2" points="1049.520752,483.052551 1038.588867,483.052551 1038.588867,490.938965 1049.520752,490.938904" />
				<polygon stroke="#909697" stroke-opacity="1" fill="none" stroke-linecap="round" stroke-width="2" points="1014.025024,483.052551 1003.093201,483.052551 1003.093201,490.938965 1014.025024,490.938965" />
				<polygon stroke="#909697" stroke-opacity="1" fill="none" stroke-linecap="round" stroke-width="2" points="978.529236,483.052551 967.597412,483.052551 967.597412,490.938965 978.529236,490.938965" />
				<polygon stroke="#909697" stroke-opacity="1" fill="none" stroke-linecap="round" stroke-width="2" points="943.033630,483.052612 932.101685,483.052612 932.101685,490.938965 943.033630,490.938965" />
				<polygon stroke="#909697" stroke-opacity="1" fill="none" stroke-linecap="round" stroke-width="2" points="907.537964,483.052612 896.606140,483.052612 896.606140,490.938965 907.537964,490.938965" />
				<polygon stroke="#909697" stroke-opacity="1" fill="none" stroke-linecap="round" stroke-width="2" points="872.042114,483.052612 861.110229,483.052612 861.110229,490.939026 872.042114,490.939026" />
				<polygon stroke="#909697" stroke-opacity="1" fill="none" stroke-linecap="round" stroke-width="2" points="836.546509,483.052612 825.614685,483.052612 825.614685,490.939026 836.546509,490.939026" />
				<polygon stroke="#909697" stroke-opacity="1" fill="none" stroke-linecap="round" stroke-width="2" points="801.050781,483.052612 790.118896,483.052612 790.118896,490.939026 801.050781,490.939026" />
				<polygon stroke="#909697" stroke-opacity="1" fill="none" stroke-linecap="round" stroke-width="2" points="765.555054,483.052673 754.623169,483.052673 754.623169,490.939026 765.555054,490.939026" />
				<polygon stroke="#909697" stroke-opacity="1" fill="none" stroke-linecap="round" stroke-width="2" points="730.059387,483.052673 719.127563,483.052673 719.127563,490.939026 730.059387,490.939026" />
				<polygon stroke="#909697" stroke-opacity="1" fill="none" stroke-linecap="round" stroke-width="2" points="694.563660,483.052673 683.631836,483.052673 683.631836,490.939087 694.563660,490.939087" />
				<polygon stroke="#909697" stroke-opacity="1" fill="none" stroke-linecap="round" stroke-width="2" points="659.067993,483.052673 648.136108,483.052673 648.136108,490.939087 659.067993,490.939087" />
				<polygon stroke="#909697" stroke-opacity="1" fill="none" stroke-linecap="round" stroke-width="2" points="623.572388,483.052673 612.640442,483.052673 612.640442,490.939087 623.572388,490.939087" />
				<polygon stroke="#909697" stroke-opacity="1" fill="none" stroke-linecap="round" stroke-width="2" points="588.076660,483.052734 577.144775,483.052734 577.144775,490.939087 588.076660,490.939087" />
				<polygon stroke="#909697" stroke-opacity="1" fill="none" stroke-linecap="round" stroke-width="2" points="552.580872,483.052734 541.648987,483.052734 541.648987,490.939148 552.580872,490.939087" />
				<polygon stroke="#909697" stroke-opacity="1" fill="none" stroke-linecap="round" stroke-width="2" points="517.085266,483.052734 506.153412,483.052734 506.153412,490.939148 517.085266,490.939148" />
				<polygon stroke="#909697" stroke-opacity="1" fill="none" stroke-linecap="round" stroke-width="2" points="481.589539,483.052734 470.657684,483.052734 470.657684,490.939148 481.589539,490.939148" />
				<polygon stroke="#909697" stroke-opacity="1" fill="none" stroke-linecap="round" stroke-width="2" points="446.093781,483.052734 435.161926,483.052795 435.161926,490.939148 446.093781,490.939148" />
				<polygon stroke="#909697" stroke-opacity="1" fill="none" stroke-linecap="round" stroke-width="2" points="410.598175,483.052795 399.666321,483.052795 399.666321,490.939148 410.598175,490.939148" />
				<polygon stroke="#909697" stroke-opacity="1" fill="none" stroke-linecap="round" stroke-width="2" points="375.102417,483.052795 364.170563,483.052795 364.170563,490.939209 375.102417,490.939209" />
				<polygon stroke="#909697" stroke-opacity="1" fill="none" stroke-linecap="round" stroke-width="2" points="339.606689,483.052795 328.674835,483.052795 328.674835,490.939209 339.606689,490.939209" />
				<polygon stroke="#909697" stroke-opacity="1" fill="none" stroke-linecap="round" stroke-width="2" points="304.111115,483.052795 293.179199,483.052795 293.179199,490.939209 304.111115,490.939209" />
				<polygon stroke="#909697" stroke-opacity="1" fill="none" stroke-linecap="round" stroke-width="2" points="268.615387,483.052856 257.683472,483.052856 257.683472,490.939209 268.615387,490.939209" />
				<polygon stroke="#909697" stroke-opacity="1" fill="none" stroke-linecap="round" stroke-width="2" points="233.119751,483.052856 222.187790,483.052856 222.187790,490.939270 233.119751,490.939209" />
				<polygon stroke="#909697" stroke-opacity="1" fill="none" stroke-linecap="round" stroke-width="2" points="197.624023,483.052856 186.692169,483.052856 186.692169,490.939270 197.624023,490.939270" />
				<polygon stroke="#909697" stroke-opacity="1" fill="none" stroke-linecap="round" stroke-width="2" points="162.128326,483.052856 151.196426,483.052856 151.196426,490.939270 162.128326,490.939270" />
				<polygon stroke="#909697" stroke-opacity="1" fill="none" stroke-linecap="round" stroke-width="2" points="126.632599,483.052856 115.700745,483.052917 115.700745,490.939270 126.632599,490.939270" />
				<polygon stroke="#909697" stroke-opacity="1" fill="none" stroke-linecap="round" stroke-width="2" points="91.136917,483.052917 80.205063,483.052917 80.205063,490.939270 91.136917,490.939270" />
				<polygon stroke="#909697" stroke-opacity="1" fill="none" stroke-linecap="round" stroke-width="2" points="55.641232,483.052917 44.709377,483.052917 44.709377,490.939270 55.641232,490.939270" />
				<polygon stroke="#909697" stroke-opacity="1" fill="none" stroke-linecap="round" stroke-width="2" points="1886.250977,710.588257 1875.319092,710.588257 1875.319092,702.701904 1886.250977,702.701904" />
				<polygon stroke="#909697" stroke-opacity="1" fill="none" stroke-linecap="round" stroke-width="2" points="1849.654785,710.588257 1838.722900,710.588257 1838.722900,702.701904 1849.654785,702.701904" />
				<polygon stroke="#909697" stroke-opacity="1" fill="none" stroke-linecap="round" stroke-width="2" points="1813.058350,710.588257 1802.126587,710.588257 1802.126587,702.701904 1813.058350,702.701904" />
				<polygon stroke="#909697" stroke-opacity="1" fill="none" stroke-linecap="round" stroke-width="2" points="1776.461914,710.588257 1765.530029,710.588257 1765.530029,702.701904 1776.461914,702.701904" />
				<polygon stroke="#909697" stroke-opacity="1" fill="none" stroke-linecap="round" stroke-width="2" points="1739.865723,710.588257 1728.933838,710.588257 1728.933838,702.701904 1739.865723,702.701904" />
				<polygon stroke="#909697" stroke-opacity="1" fill="none" stroke-linecap="round" stroke-width="2" points="1703.269287,710.588257 1692.337402,710.588257 1692.337402,702.701904 1703.269287,702.701904" />
				<polygon stroke="#909697" stroke-opacity="1" fill="none" stroke-linecap="round" stroke-width="2" points="1666.672852,710.588257 1655.741089,710.588257 1655.741089,702.701904 1666.672852,702.701904" />
				<polygon stroke="#909697" stroke-opacity="1" fill="none" stroke-linecap="round" stroke-width="2" points="1630.076782,710.588257 1619.144897,710.588257 1619.144897,702.701904 1630.076782,702.701904" />
				<polygon stroke="#909697" stroke-opacity="1" fill="none" stroke-linecap="round" stroke-width="2" points="1593.480225,710.588257 1582.548462,710.588257 1582.548462,702.701904 1593.480225,702.701904" />
				<polygon stroke="#909697" stroke-opacity="1" fill="none" stroke-linecap="round" stroke-width="2" points="1556.884155,710.588257 1545.952271,710.588257 1545.952271,702.701904 1556.884155,702.701904" />
				<polygon stroke="#909697" stroke-opacity="1" fill="none" stroke-linecap="round" stroke-width="2" points="1520.287598,710.588257 1509.355713,710.588257 1509.355713,702.701904 1520.287598,702.701904" />
				<polygon stroke="#909697" stroke-opacity="1" fill="none" stroke-linecap="round" stroke-width="2" points="1483.691406,710.588257 1472.759521,710.588257 1472.759521,702.701904 1483.691406,702.701904" />
				<polygon stroke="#909697" stroke-opacity="1" fill="none" stroke-linecap="round" stroke-width="2" points="1886.250977,653.767700 1875.319092,653.767700 1875.319092,645.881287 1886.250977,645.881287" />
				<polygon stroke="#909697" stroke-opacity="1" fill="none" stroke-linecap="round" stroke-width="2" points="1849.654785,653.767700 1838.722900,653.767700 1838.722900,645.881287 1849.654785,645.881287" />
				<polygon stroke="#909697" stroke-opacity="1" fill="none" stroke-linecap="round" stroke-width="2" points="1813.058350,653.767700 1802.126587,653.767700 1802.126587,645.881287 1813.058350,645.881287" />
				<polygon stroke="#909697" stroke-opacity="1" fill="none" stroke-linecap="round" stroke-width="2" points="1776.461914,653.767700 1765.530029,653.767700 1765.530029,645.881287 1776.461914,645.881287" />
				<polygon stroke="#909697" stroke-opacity="1" fill="none" stroke-linecap="round" stroke-width="2" points="1739.865723,653.767700 1728.933838,653.767700 1728.933838,645.881287 1739.865723,645.881287" />
				<polygon stroke="#909697" stroke-opacity="1" fill="none" stroke-linecap="round" stroke-width="2" points="1703.269287,653.767700 1692.337402,653.767700 1692.337402,645.881287 1703.269287,645.881287" />
				<polygon stroke="#909697" stroke-opacity="1" fill="none" stroke-linecap="round" stroke-width="2" points="1666.672852,653.767700 1655.741089,653.767700 1655.741089,645.881348 1666.672852,645.881287" />
				<polygon stroke="#909697" stroke-opacity="1" fill="none" stroke-linecap="round" stroke-width="2" points="1630.076782,653.767700 1619.144897,653.767700 1619.144897,645.881348 1630.076782,645.881348" />
				<polygon stroke="#909697" stroke-opacity="1" fill="none" stroke-linecap="round" stroke-width="2" points="1593.480225,653.767700 1582.548462,653.767700 1582.548462,645.881348 1593.480225,645.881348" />
				<polygon stroke="#909697" stroke-opacity="1" fill="none" stroke-linecap="round" stroke-width="2" points="1556.884155,653.767700 1545.952271,653.767700 1545.952271,645.881348 1556.884155,645.881348" />
				<polygon stroke="#909697" stroke-opacity="1" fill="none" stroke-linecap="round" stroke-width="2" points="1520.287598,653.767700 1509.355713,653.767700 1509.355713,645.881348 1520.287598,645.881348" />
				<polygon stroke="#909697" stroke-opacity="1" fill="none" stroke-linecap="round" stroke-width="2" points="1483.691406,653.767700 1472.759521,653.767700 1472.759521,645.881348 1483.691406,645.881348" />
				<polygon stroke="#909697" stroke-opacity="1" fill="none" stroke-linecap="round" stroke-width="2" points="1886.250977,596.947021 1875.319092,596.947021 1875.319092,589.060669 1886.250977,589.060669" />
				<polygon stroke="#909697" stroke-opacity="1" fill="none" stroke-linecap="round" stroke-width="2" points="1849.654785,596.947021 1838.722900,596.947021 1838.722900,589.060669 1849.654785,589.060669" />
				<polygon stroke="#909697" stroke-opacity="1" fill="none" stroke-linecap="round" stroke-width="2" points="1813.058350,596.947021 1802.126587,596.947021 1802.126587,589.060669 1813.058350,589.060669" />
				<polygon stroke="#909697" stroke-opacity="1" fill="none" stroke-linecap="round" stroke-width="2" points="1776.461914,596.947021 1765.530029,596.947021 1765.530029,589.060669 1776.461914,589.060669" />
				<polygon stroke="#909697" stroke-opacity="1" fill="none" stroke-linecap="round" stroke-width="2" points="1739.865723,596.947021 1728.933838,596.947021 1728.933838,589.060669 1739.865723,589.060669" />
				<polygon stroke="#909697" stroke-opacity="1" fill="none" stroke-linecap="round" stroke-width="2" points="1703.269287,596.947021 1692.337402,596.947083 1692.337402,589.060669 1703.269287,589.060669" />
				<polygon stroke="#909697" stroke-opacity="1" fill="none" stroke-linecap="round" stroke-width="2" points="1666.672852,596.947083 1655.741089,596.947083 1655.741089,589.060669 1666.672852,589.060669" />
				<polygon stroke="#909697" stroke-opacity="1" fill="none" stroke-linecap="round" stroke-width="2" points="1630.076782,596.947083 1619.144897,596.947083 1619.144897,589.060669 1630.076782,589.060669" />
				<polygon stroke="#909697" stroke-opacity="1" fill="none" stroke-linecap="round" stroke-width="2" points="1593.480225,596.947083 1582.548462,596.947083 1582.548462,589.060669 1593.480225,589.060669" />
				<polygon stroke="#909697" stroke-opacity="1" fill="none" stroke-linecap="round" stroke-width="2" points="1556.884155,596.947083 1545.952271,596.947083 1545.952271,589.060669 1556.884155,589.060669" />
				<polygon stroke="#909697" stroke-opacity="1" fill="none" stroke-linecap="round" stroke-width="2" points="1520.287598,596.947083 1509.355713,596.947083 1509.355713,589.060669 1520.287598,589.060669" />
				<polygon stroke="#909697" stroke-opacity="1" fill="none" stroke-linecap="round" stroke-width="2" points="1483.691406,596.947083 1472.759521,596.947083 1472.759521,589.060669 1483.691406,589.060669" />
				<polygon stroke="#909697" stroke-opacity="1" fill="none" stroke-linecap="round" stroke-width="2" points="1886.250977,369.411011 1875.319092,369.411011 1875.319092,377.297424 1886.250977,377.297424" />
				<polygon stroke="#909697" stroke-opacity="1" fill="none" stroke-linecap="round" stroke-width="2" points="1849.654541,369.411011 1838.722656,369.411011 1838.722656,377.297424 1849.654541,377.297424" />
				<polygon stroke="#909697" stroke-opacity="1" fill="none" stroke-linecap="round" stroke-width="2" points="1813.058350,369.411072 1802.126587,369.411072 1802.126587,377.297424 1813.058350,377.297424" />
				<polygon stroke="#909697" stroke-opacity="1" fill="none" stroke-linecap="round" stroke-width="2" points="1776.461914,369.411072 1765.530029,369.411072 1765.530029,377.297424 1776.461914,377.297424" />
				<polygon stroke="#909697" stroke-opacity="1" fill="none" stroke-linecap="round" stroke-width="2" points="1739.865723,369.411072 1728.933838,369.411072 1728.933838,377.297424 1739.865723,377.297424" />
				<polygon stroke="#909697" stroke-opacity="1" fill="none" stroke-linecap="round" stroke-width="2" points="1703.269287,369.411133 1692.337402,369.411133 1692.337402,377.297485 1703.269287,377.297485" />
				<polygon stroke="#909697" stroke-opacity="1" fill="none" stroke-linecap="round" stroke-width="2" points="1666.672852,369.411133 1655.741089,369.411133 1655.741089,377.297485 1666.672852,377.297485" />
				<polygon stroke="#909697" stroke-opacity="1" fill="none" stroke-linecap="round" stroke-width="2" points="1630.076782,369.411133 1619.144897,369.411133 1619.144897,377.297485 1630.076782,377.297485" />
				<polygon stroke="#909697" stroke-opacity="1" fill="none" stroke-linecap="round" stroke-width="2" points="1593.480225,369.411133 1582.548462,369.411133 1582.548462,377.297485 1593.480225,377.297485" />
				<polygon stroke="#909697" stroke-opacity="1" fill="none" stroke-linecap="round" stroke-width="2" points="1556.884033,369.411133 1545.952148,369.411133 1545.952148,377.297485 1556.884033,377.297485" />
				<polygon stroke="#909697" stroke-opacity="1" fill="none" stroke-linecap="round" stroke-width="2" points="1520.287598,369.411133 1509.355713,369.411133 1509.355713,377.297485 1520.287598,377.297485" />
				<polygon stroke="#909697" stroke-opacity="1" fill="none" stroke-linecap="round" stroke-width="2" points="1483.691284,369.411194 1472.759399,369.411194 1472.759399,377.297546 1483.691284,377.297546" />
				<polygon stroke="#909697" stroke-opacity="1" fill="none" stroke-linecap="round" stroke-width="2" points="1886.250977,426.231628 1875.319092,426.231628 1875.319092,434.117981 1886.250977,434.117981" />
				<polygon stroke="#909697" stroke-opacity="1" fill="none" stroke-linecap="round" stroke-width="2" points="1849.654541,426.231628 1838.722656,426.231628 1838.722900,434.117981 1849.654785,434.117981" />
				<polygon stroke="#909697" stroke-opacity="1" fill="none" stroke-linecap="round" stroke-width="2" points="1813.058350,426.231628 1802.126587,426.231628 1802.126587,434.117981 1813.058350,434.117981" />
				<polygon stroke="#909697" stroke-opacity="1" fill="none" stroke-linecap="round" stroke-width="2" points="1776.461914,426.231628 1765.530029,426.231628 1765.530029,434.118042 1776.461914,434.118042" />
				<polygon stroke="#909697" stroke-opacity="1" fill="none" stroke-linecap="round" stroke-width="2" points="1739.865723,426.231689 1728.933838,426.231689 1728.933838,434.118042 1739.865723,434.118042" />
				<polygon stroke="#909697" stroke-opacity="1" fill="none" stroke-linecap="round" stroke-width="2" points="1703.269287,426.231689 1692.337402,426.231689 1692.337402,434.118042 1703.269287,434.118042" />
				<polygon stroke="#909697" stroke-opacity="1" fill="none" stroke-linecap="round" stroke-width="2" points="1666.672852,426.231689 1655.741089,426.231689 1655.741089,434.118103 1666.672852,434.118042" />
				<polygon stroke="#909697" stroke-opacity="1" fill="none" stroke-linecap="round" stroke-width="2" points="1630.076782,426.231689 1619.144897,426.231689 1619.144897,434.118103 1630.076782,434.118103" />
				<polygon stroke="#909697" stroke-opacity="1" fill="none" stroke-linecap="round" stroke-width="2" points="1593.480225,426.231689 1582.548462,426.231689 1582.548462,434.118103 1593.480225,434.118103" />
				<polygon stroke="#909697" stroke-opacity="1" fill="none" stroke-linecap="round" stroke-width="2" points="1556.884155,426.231750 1545.952271,426.231750 1545.952271,434.118103 1556.884155,434.118103" />
				<polygon stroke="#909697" stroke-opacity="1" fill="none" stroke-linecap="round" stroke-width="2" points="1520.287598,426.231750 1509.355713,426.231750 1509.355713,434.118103 1520.287598,434.118103" />
				<polygon stroke="#909697" stroke-opacity="1" fill="none" stroke-linecap="round" stroke-width="2" points="1483.691284,426.231750 1472.759399,426.231750 1472.759399,434.118103 1483.691284,434.118103" />
				<polygon stroke="#909697" stroke-opacity="1" fill="none" stroke-linecap="round" stroke-width="2" points="1886.250977,483.052246 1875.319092,483.052246 1875.319092,490.938599 1886.250977,490.938599" />
				<polygon stroke="#909697" stroke-opacity="1" fill="none" stroke-linecap="round" stroke-width="2" points="1849.654785,483.052246 1838.722900,483.052246 1838.722900,490.938599 1849.654785,490.938599" />
				<polygon stroke="#909697" stroke-opacity="1" fill="none" stroke-linecap="round" stroke-width="2" points="1813.058350,483.052307 1802.126587,483.052307 1802.126587,490.938599 1813.058350,490.938599" />
				<polygon stroke="#909697" stroke-opacity="1" fill="none" stroke-linecap="round" stroke-width="2" points="1776.461914,483.052307 1765.530029,483.052307 1765.530029,490.938599 1776.461914,490.938599" />
				<polygon stroke="#909697" stroke-opacity="1" fill="none" stroke-linecap="round" stroke-width="2" points="1739.865723,483.052307 1728.933838,483.052307 1728.933838,490.938660 1739.865723,490.938660" />
				<polygon stroke="#909697" stroke-opacity="1" fill="none" stroke-linecap="round" stroke-width="2" points="1703.269287,483.052307 1692.337402,483.052307 1692.337402,490.938660 1703.269287,490.938660" />
				<polygon stroke="#909697" stroke-opacity="1" fill="none" stroke-linecap="round" stroke-width="2" points="1666.672852,483.052307 1655.741089,483.052307 1655.741089,490.938660 1666.672852,490.938660" />
				<polygon stroke="#909697" stroke-opacity="1" fill="none" stroke-linecap="round" stroke-width="2" points="1630.076782,483.052368 1619.144897,483.052368 1619.144897,490.938660 1630.076782,490.938660" />
				<polygon stroke="#909697" stroke-opacity="1" fill="none" stroke-linecap="round" stroke-width="2" points="1593.480225,483.052368 1582.548462,483.052368 1582.548462,490.938721 1593.480225,490.938721" />
				<polygon stroke="#909697" stroke-opacity="1" fill="none" stroke-linecap="round" stroke-width="2" points="1556.884155,483.052368 1545.952271,483.052368 1545.952271,490.938721 1556.884155,490.938721" />
				<polygon stroke="#909697" stroke-opacity="1" fill="none" stroke-linecap="round" stroke-width="2" points="1520.287598,483.052368 1509.355713,483.052368 1509.355713,490.938721 1520.287598,490.938721" />
				<polygon stroke="#909697" stroke-opacity="1" fill="none" stroke-linecap="round" stroke-width="2" points="1483.691284,483.052429 1472.759399,483.052429 1472.759399,490.938721 1483.691406,490.938721" />
				<polygon stroke="#909697" stroke-opacity="1" fill="none" stroke-linecap="round" stroke-width="2" points="1886.250977,543.943115 1875.319092,543.943115 1875.319092,536.056763 1886.250977,536.056763" />
				<polygon stroke="#909697" stroke-opacity="1" fill="none" stroke-linecap="round" stroke-width="2" points="1849.654785,543.943115 1838.722900,543.943115 1838.722900,536.056763 1849.654785,536.056763" />
				<polygon stroke="#909697" stroke-opacity="1" fill="none" stroke-linecap="round" stroke-width="2" points="1813.058350,543.943115 1802.126587,543.943115 1802.126587,536.056763 1813.058350,536.056763" />
				<polygon stroke="#909697" stroke-opacity="1" fill="none" stroke-linecap="round" stroke-width="2" points="1776.461914,543.943115 1765.530029,543.943115 1765.530029,536.056763 1776.461914,536.056763" />
				<polygon stroke="#909697" stroke-opacity="1" fill="none" stroke-linecap="round" stroke-width="2" points="1739.865723,543.943115 1728.933838,543.943115 1728.933838,536.056763 1739.865723,536.056763" />
				<polygon stroke="#909697" stroke-opacity="1" fill="none" stroke-linecap="round" stroke-width="2" points="1703.269287,543.943115 1692.337402,543.943115 1692.337402,536.056763 1703.269287,536.056763" />
				<polygon stroke="#909697" stroke-opacity="1" fill="none" stroke-linecap="round" stroke-width="2" points="1666.672852,543.943115 1655.741089,543.943115 1655.741089,536.056763 1666.672852,536.056763" />
				<polygon stroke="#909697" stroke-opacity="1" fill="none" stroke-linecap="round" stroke-width="2" points="1630.076782,543.943115 1619.144897,543.943115 1619.144897,536.056763 1630.076782,536.056763" />
				<polygon stroke="#909697" stroke-opacity="1" fill="none" stroke-linecap="round" stroke-width="2" points="1593.480225,543.943115 1582.548462,543.943115 1582.548462,536.056763 1593.480225,536.056763" />
				<polygon stroke="#909697" stroke-opacity="1" fill="none" stroke-linecap="round" stroke-width="2" points="1556.884155,543.943115 1545.952271,543.943115 1545.952271,536.056763 1556.884155,536.056763" />
				<polygon stroke="#909697" stroke-opacity="1" fill="none" stroke-linecap="round" stroke-width="2" points="1520.287598,543.943115 1509.355713,543.943115 1509.355713,536.056763 1520.287598,536.056763" />
				<polygon stroke="#909697" stroke-opacity="1" fill="none" stroke-linecap="round" stroke-width="2" points="1483.691406,543.943115 1472.759521,543.943115 1472.759521,536.056763 1483.691406,536.056763" />
				<polygon stroke="#909697" stroke-opacity="1" fill="none" stroke-linecap="round" stroke-width="2" points="1404.477539,543.943176 1393.545410,543.943176 1393.545410,536.056763 1404.477539,536.056763" />
				<polygon stroke="#909697" stroke-opacity="1" fill="none" stroke-linecap="round" stroke-width="2" points="1368.981689,543.943176 1358.049805,543.943176 1358.049805,536.056763 1368.981689,536.056763" />
				<polygon stroke="#909697" stroke-opacity="1" fill="none" stroke-linecap="round" stroke-width="2" points="1333.485840,543.943176 1322.554077,543.943176 1322.554077,536.056763 1333.485840,536.056763" />
				<polygon stroke="#909697" stroke-opacity="1" fill="none" stroke-linecap="round" stroke-width="2" points="1297.990356,543.943176 1287.058350,543.943176 1287.058350,536.056763 1297.990356,536.056763" />
				<polygon stroke="#909697" stroke-opacity="1" fill="none" stroke-linecap="round" stroke-width="2" points="1262.494629,543.943176 1251.562744,543.943176 1251.562744,536.056763 1262.494629,536.056763" />
				<polygon stroke="#909697" stroke-opacity="1" fill="none" stroke-linecap="round" stroke-width="2" points="1226.999023,543.943176 1216.067139,543.943176 1216.067139,536.056763 1226.999023,536.056763" />
				<polygon stroke="#909697" stroke-opacity="1" fill="none" stroke-linecap="round" stroke-width="2" points="1191.503174,543.943176 1180.571411,543.943176 1180.571411,536.056763 1191.503174,536.056763" />
				<polygon stroke="#909697" stroke-opacity="1" fill="none" stroke-linecap="round" stroke-width="2" points="1156.007568,543.943176 1145.075684,543.943176 1145.075684,536.056824 1156.007568,536.056763" />
				<polygon stroke="#909697" stroke-opacity="1" fill="none" stroke-linecap="round" stroke-width="2" points="1120.511841,543.943176 1109.579956,543.943176 1109.579956,536.056824 1120.511841,536.056824" />
				<polygon stroke="#909697" stroke-opacity="1" fill="none" stroke-linecap="round" stroke-width="2" points="1085.016113,543.943176 1074.084351,543.943176 1074.084351,536.056824 1085.016113,536.056824" />
				<polygon stroke="#909697" stroke-opacity="1" fill="none" stroke-linecap="round" stroke-width="2" points="1049.520386,543.943176 1038.588501,543.943176 1038.588501,536.056824 1049.520386,536.056824" />
				<polygon stroke="#909697" stroke-opacity="1" fill="none" stroke-linecap="round" stroke-width="2" points="1014.024780,543.943176 1003.092957,543.943176 1003.092957,536.056824 1014.024780,536.056824" />
				<polygon stroke="#909697" stroke-opacity="1" fill="none" stroke-linecap="round" stroke-width="2" points="978.529114,543.943176 967.597168,543.943176 967.597168,536.056824 978.529114,536.056824" />
				<polygon stroke="#909697" stroke-opacity="1" fill="none" stroke-linecap="round" stroke-width="2" points="943.033325,543.943176 932.101501,543.943176 932.101501,536.056824 943.033325,536.056824" />
				<polygon stroke="#909697" stroke-opacity="1" fill="none" stroke-linecap="round" stroke-width="2" points="907.537781,543.943176 896.605835,543.943176 896.605835,536.056824 907.537781,536.056824" />
				<polygon stroke="#909697" stroke-opacity="1" fill="none" stroke-linecap="round" stroke-width="2" points="872.042114,543.943176 861.110229,543.943176 861.110229,536.056824 872.042114,536.056824" />
				<polygon stroke="#909697" stroke-opacity="1" fill="none" stroke-linecap="round" stroke-width="2" points="836.546387,543.943176 825.614502,543.943176 825.614502,536.056824 836.546387,536.056824" />
				<polygon stroke="#909697" stroke-opacity="1" fill="none" stroke-linecap="round" stroke-width="2" points="801.050659,543.943176 790.118774,543.943176 790.118774,536.056824 801.050659,536.056824" />
				<polygon stroke="#909697" stroke-opacity="1" fill="none" stroke-linecap="round" stroke-width="2" points="765.555054,543.943176 754.623169,543.943176 754.623169,536.056824 765.555054,536.056824" />
				<polygon stroke="#909697" stroke-opacity="1" fill="none" stroke-linecap="round" stroke-width="2" points="730.059326,543.943176 719.127441,543.943176 719.127441,536.056824 730.059326,536.056824" />
				<polygon stroke="#909697" stroke-opacity="1" fill="none" stroke-linecap="round" stroke-width="2" points="694.563538,543.943176 683.631714,543.943176 683.631714,536.056824 694.563538,536.056824" />
				<polygon stroke="#909697" stroke-opacity="1" fill="none" stroke-linecap="round" stroke-width="2" points="659.067993,543.943176 648.136108,543.943176 648.136108,536.056824 659.067993,536.056824" />
				<polygon stroke="#909697" stroke-opacity="1" fill="none" stroke-linecap="round" stroke-width="2" points="623.572205,543.943176 612.640320,543.943176 612.640320,536.056824 623.572205,536.056824" />
				<polygon stroke="#909697" stroke-opacity="1" fill="none" stroke-linecap="round" stroke-width="2" points="588.076538,543.943176 577.144592,543.943237 577.144592,536.056824 588.076538,536.056824" />
				<polygon stroke="#909697" stroke-opacity="1" fill="none" stroke-linecap="round" stroke-width="2" points="552.580872,543.943237 541.648987,543.943237 541.648987,536.056824 552.580872,536.056824" />
				<polygon stroke="#909697" stroke-opacity="1" fill="none" stroke-linecap="round" stroke-width="2" points="517.085144,543.943237 506.153290,543.943237 506.153290,536.056824 517.085144,536.056824" />
				<polygon stroke="#909697" stroke-opacity="1" fill="none" stroke-linecap="round" stroke-width="2" points="481.589417,543.943237 470.657501,543.943237 470.657501,536.056824 481.589417,536.056824" />
				<polygon stroke="#909697" stroke-opacity="1" fill="none" stroke-linecap="round" stroke-width="2" points="446.093781,543.943237 435.161926,543.943237 435.161926,536.056824 446.093781,536.056824" />
				<polygon stroke="#909697" stroke-opacity="1" fill="none" stroke-linecap="round" stroke-width="2" points="410.598053,543.943237 399.666199,543.943237 399.666199,536.056824 410.598053,536.056824" />
				<polygon stroke="#909697" stroke-opacity="1" fill="none" stroke-linecap="round" stroke-width="2" points="375.102295,543.943237 364.170471,543.943237 364.170471,536.056824 375.102295,536.056824" />
				<polygon stroke="#909697" stroke-opacity="1" fill="none" stroke-linecap="round" stroke-width="2" points="339.606689,543.943237 328.674835,543.943237 328.674835,536.056824 339.606689,536.056824" />
				<polygon stroke="#909697" stroke-opacity="1" fill="none" stroke-linecap="round" stroke-width="2" points="304.110962,543.943237 293.179077,543.943237 293.179077,536.056885 304.110962,536.056885" />
				<polygon stroke="#909697" stroke-opacity="1" fill="none" stroke-linecap="round" stroke-width="2" points="268.615387,543.943237 257.683472,543.943237 257.683472,536.056885 268.615387,536.056885" />
				<polygon stroke="#909697" stroke-opacity="1" fill="none" stroke-linecap="round" stroke-width="2" points="233.119644,543.943237 222.187729,543.943237 222.187729,536.056885 233.119644,536.056885" />
				<polygon stroke="#909697" stroke-opacity="1" fill="none" stroke-linecap="round" stroke-width="2" points="197.623962,543.943237 186.692047,543.943237 186.692047,536.056885 197.623962,536.056885" />
				<polygon stroke="#909697" stroke-opacity="1" fill="none" stroke-linecap="round" stroke-width="2" points="162.128281,543.943237 151.196426,543.943237 151.196426,536.056885 162.128281,536.056885" />
				<polygon stroke="#909697" stroke-opacity="1" fill="none" stroke-linecap="round" stroke-width="2" points="126.632538,543.943237 115.700684,543.943237 115.700684,536.056885 126.632538,536.056885" />
				<polygon stroke="#909697" stroke-opacity="1" fill="none" stroke-linecap="round" stroke-width="2" points="91.136856,543.943237 80.205002,543.943237 80.205002,536.056885 91.136856,536.056885" />
				<polygon stroke="#909697" stroke-opacity="1" fill="none" stroke-linecap="round" stroke-width="2" points="55.641174,543.943237 44.709320,543.943237 44.709320,536.056885 55.641174,536.056885" />
				<polygon stroke="#909697" stroke-opacity="1" fill="none" stroke-linecap="round" stroke-width="2" points="1439.672363,696.145874 1428.740356,696.145874 1428.740356,691.348755 1439.672363,691.348755" />
				<polygon stroke="#909697" stroke-opacity="1" fill="none" stroke-linecap="round" stroke-width="2" points="1297.689575,696.145874 1286.757812,696.145874 1286.757812,691.348755 1297.689575,691.348755" />
				<polygon stroke="#909697" stroke-opacity="1" fill="none" stroke-linecap="round" stroke-width="2" points="1155.706787,696.145874 1144.774902,696.145874 1144.774902,691.348755 1155.706787,691.348755" />
				<polygon stroke="#909697" stroke-opacity="1" fill="none" stroke-linecap="round" stroke-width="2" points="1013.724060,696.145874 1002.792236,696.145874 1002.792236,691.348755 1013.724060,691.348755" />
				<polygon stroke="#909697" stroke-opacity="1" fill="none" stroke-linecap="round" stroke-width="2" points="871.741455,696.145874 860.809509,696.145935 860.809509,691.348816 871.741455,691.348755" />
				<polygon stroke="#909697" stroke-opacity="1" fill="none" stroke-linecap="round" stroke-width="2" points="729.758728,696.145935 718.826843,696.145935 718.826843,691.348816 729.758728,691.348816" />
				<polygon stroke="#909697" stroke-opacity="1" fill="none" stroke-linecap="round" stroke-width="2" points="587.775879,696.145996 576.843994,696.145996 576.843994,691.348816 587.775879,691.348816" />
				<polygon stroke="#909697" stroke-opacity="1" fill="none" stroke-linecap="round" stroke-width="2" points="445.793213,696.145996 434.861298,696.145996 434.861298,691.348816 445.793213,691.348816" />
				<polygon stroke="#909697" stroke-opacity="1" fill="none" stroke-linecap="round" stroke-width="2" points="303.810425,696.145996 292.878571,696.145996 292.878571,691.348816 303.810425,691.348816" />
				<polygon stroke="#909697" stroke-opacity="1" fill="none" stroke-linecap="round" stroke-width="2" points="161.827698,696.145996 150.895782,696.145996 150.895782,691.348877 161.827698,691.348877" />
				<polygon stroke="#909697" stroke-opacity="1" fill="none" stroke-linecap="round" stroke-width="2" points="1439.672363,558.565674 1428.740356,558.565674 1428.740356,553.768555 1439.672363,553.768555" />
				<polygon stroke="#909697" stroke-opacity="1" fill="none" stroke-linecap="round" stroke-width="2" points="1297.689575,558.565674 1286.757812,558.565674 1286.757812,553.768555 1297.689575,553.768555" />
				<polygon stroke="#909697" stroke-opacity="1" fill="none" stroke-linecap="round" stroke-width="2" points="1155.706787,558.565735 1144.774902,558.565735 1144.774902,553.768555 1155.706787,553.768555" />
				<polygon stroke="#909697" stroke-opacity="1" fill="none" stroke-linecap="round" stroke-width="2" points="1013.724060,558.565735 1002.792236,558.565735 1002.792236,553.768616 1013.724060,553.768616" />
				<polygon stroke="#909697" stroke-opacity="1" fill="none" stroke-linecap="round" stroke-width="2" points="871.741394,558.565735 860.809509,558.565735 860.809509,553.768616 871.741394,553.768616" />
				<polygon stroke="#909697" stroke-opacity="1" fill="none" stroke-linecap="round" stroke-width="2" points="729.758728,558.565735 718.826843,558.565735 718.826843,553.768616 729.758728,553.768616" />
				<polygon stroke="#909697" stroke-opacity="1" fill="none" stroke-linecap="round" stroke-width="2" points="587.775879,558.565735 576.843994,558.565735 576.843994,553.768677 587.775879,553.768616" />
				<polygon stroke="#909697" stroke-opacity="1" fill="none" stroke-linecap="round" stroke-width="2" points="445.793213,558.565735 434.861298,558.565735 434.861298,553.768677 445.793213,553.768677" />
				<polygon stroke="#909697" stroke-opacity="1" fill="none" stroke-linecap="round" stroke-width="2" points="303.810425,558.565796 292.878571,558.565796 292.878571,553.768677 303.810425,553.768677" />
				<polygon stroke="#909697" stroke-opacity="1" fill="none" stroke-linecap="round" stroke-width="2" points="161.827698,558.565796 150.895782,558.565796 150.895782,553.768677 161.827698,553.768677" />
				<polygon stroke="#909697" stroke-opacity="1" fill="none" stroke-linecap="round" stroke-width="2" points="1439.672363,383.853943 1428.740356,383.853943 1428.740356,388.651062 1439.672363,388.651062" />
				<polygon stroke="#909697" stroke-opacity="1" fill="none" stroke-linecap="round" stroke-width="2" points="1297.689575,383.854004 1286.757812,383.854004 1286.757812,388.651062 1297.689575,388.651062" />
				<polygon stroke="#909697" stroke-opacity="1" fill="none" stroke-linecap="round" stroke-width="2" points="1155.706787,383.854004 1144.774902,383.854004 1144.774902,388.651123 1155.706787,388.651123" />
				<polygon stroke="#909697" stroke-opacity="1" fill="none" stroke-linecap="round" stroke-width="2" points="1013.724060,383.854065 1002.792236,383.854065 1002.792236,388.651184 1013.724060,388.651184" />
				<polygon stroke="#909697" stroke-opacity="1" fill="none" stroke-linecap="round" stroke-width="2" points="871.741394,383.854126 860.809448,383.854126 860.809448,388.651245 871.741394,388.651245" />
				<polygon stroke="#909697" stroke-opacity="1" fill="none" stroke-linecap="round" stroke-width="2" points="729.758606,383.854187 718.826782,383.854187 718.826782,388.651306 729.758606,388.651306" />
				<polygon stroke="#909697" stroke-opacity="1" fill="none" stroke-linecap="round" stroke-width="2" points="587.775879,383.854248 576.843994,383.854248 576.843994,388.651367 587.775879,388.651306" />
				<polygon stroke="#909697" stroke-opacity="1" fill="none" stroke-linecap="round" stroke-width="2" points="445.793091,383.854248 434.861298,383.854309 434.861298,388.651428 445.793091,388.651367" />
				<polygon stroke="#909697" stroke-opacity="1" fill="none" stroke-linecap="round" stroke-width="2" points="303.810364,383.854309 292.878510,383.854309 292.878510,388.651428 303.810364,388.651428" />
				<polygon stroke="#909697" stroke-opacity="1" fill="none" stroke-linecap="round" stroke-width="2" points="161.827637,383.854370 150.895721,383.854370 150.895721,388.651489 161.827637,388.651489" />
				<polygon stroke="#909697" stroke-opacity="1" fill="none" stroke-linecap="round" stroke-width="2" points="1439.672363,521.434021 1428.740356,521.434143 1428.740356,526.231201 1439.672363,526.231201" />
				<polygon stroke="#909697" stroke-opacity="1" fill="none" stroke-linecap="round" stroke-width="2" points="1297.689575,521.434143 1286.757812,521.434143 1286.757812,526.231262 1297.689575,526.231262" />
				<polygon stroke="#909697" stroke-opacity="1" fill="none" stroke-linecap="round" stroke-width="2" points="1155.706787,521.434204 1144.774902,521.434204 1144.774902,526.231323 1155.706787,526.231323" />
				<polygon stroke="#909697" stroke-opacity="1" fill="none" stroke-linecap="round" stroke-width="2" points="1013.724060,521.434265 1002.792236,521.434265 1002.792236,526.231384 1013.724060,526.231384" />
				<polygon stroke="#909697" stroke-opacity="1" fill="none" stroke-linecap="round" stroke-width="2" points="871.741394,521.434326 860.809509,521.434326 860.809509,526.231445 871.741394,526.231445" />
				<polygon stroke="#909697" stroke-opacity="1" fill="none" stroke-linecap="round" stroke-width="2" points="729.758728,521.434387 718.826843,521.434387 718.826843,526.231506 729.758728,526.231445" />
				<polygon stroke="#909697" stroke-opacity="1" fill="none" stroke-linecap="round" stroke-width="2" points="587.775879,521.434448 576.843994,521.434448 576.843994,526.231506 587.775879,526.231506" />
				<polygon stroke="#909697" stroke-opacity="1" fill="none" stroke-linecap="round" stroke-width="2" points="445.793213,521.434448 434.861298,521.434448 434.861298,526.231567 445.793213,526.231567" />
				<polygon stroke="#909697" stroke-opacity="1" fill="none" stroke-linecap="round" stroke-width="2" points="303.810364,521.434509 292.878510,521.434509 292.878510,526.231628 303.810364,526.231628" />
				<polygon stroke="#909697" stroke-opacity="1" fill="none" stroke-linecap="round" stroke-width="2" points="161.827698,521.434570 150.895782,521.434570 150.895782,526.231689 161.827698,526.231689" />
			</g>
		</g>
	</g>
</svg>
